<?xml version="1.0" standalone="no"?>
<!DOCTYPE svg PUBLIC "-//W3C//DTD SVG 20010904//EN"
 "http://www.w3.org/TR/2001/REC-SVG-20010904/DTD/svg10.dtd">
<svg version="1.0" xmlns="http://www.w3.org/2000/svg"
 width="150.000000pt" height="150.000000pt" viewBox="0 0 150.000000 150.000000"
 preserveAspectRatio="xMidYMid meet">

<g transform="translate(0.000000,150.000000) scale(0.100000,-0.100000)"
fill="#000000" stroke="none">
<path d="M900 758 c0 -19 2 -20 10 -8 13 19 13 30 0 30 -5 0 -10 -10 -10 -22z"/>
<path d="M940 761 c0 -6 5 -11 10 -11 13 0 13 -27 0 -35 -6 -4 -7 1 -3 11 4
12 3 15 -5 10 -19 -11 -14 -38 6 -34 22 4 27 41 7 58 -10 8 -15 9 -15 1z"/>
<path d="M740 750 c-7 -4 -10 -12 -6 -18 3 -5 0 -12 -8 -15 -7 -3 -12 -16 -11
-29 1 -13 0 -15 -2 -5 -5 19 -23 24 -23 6 0 -8 -4 -8 -13 0 -18 14 -37 -5 -37
-36 0 -32 30 -27 43 7 3 8 6 -1 7 -20 1 -30 3 -32 10 -14 4 12 18 24 29 27 12
3 19 1 16 -3 -12 -19 19 -21 34 -2 9 11 24 22 34 24 10 1 18 6 18 11 -1 4 -1
16 -1 27 0 31 -20 24 -21 -7 0 -16 -3 -21 -6 -13 -18 55 -39 75 -63 60z m-79
-103 c-8 -8 -11 -5 -11 9 0 27 14 41 18 19 2 -9 -1 -22 -7 -28z"/>
<path d="M872 730 c0 -14 2 -19 5 -12 2 6 2 18 0 25 -3 6 -5 1 -5 -13z"/>
<path d="M576 721 c-10 -10 -32 -22 -51 -25 -39 -8 -58 -27 -49 -50 8 -22 24
-20 24 2 0 23 19 42 41 42 23 0 51 -46 47 -78 -2 -23 -8 -27 -33 -27 -21 0
-31 5 -33 18 -2 10 2 16 8 15 7 -2 15 3 18 11 6 18 -19 9 -32 -11 -24 -38 45
-65 79 -31 17 16 17 57 0 97 -5 12 -5 17 2 13 5 -3 10 0 10 8 0 8 -4 15 -9 15
-5 0 -6 5 -3 10 10 16 -1 11 -19 -9z"/>
<path d="M634 732 c4 -7 2 -21 -5 -30 -12 -15 -11 -15 6 0 16 15 17 20 6 30
-11 11 -13 10 -7 0z"/>
<path d="M846 721 c-5 -14 -4 -27 3 -34 15 -15 18 -7 11 28 -6 29 -6 29 -14 6z"/>
</g>
</svg>
